#!OML:ASF E:\id_vita\Project 1\Capture day 1\Session 1\Male1.ASF
:FULLY-SPECIFIED
:DEGREES
929
root 1.16343 16.0976 -1.12311 456.926 82.9215 451.331
lowerback -5.05164 -4.67301 -9.76094
upperback 0.78482 -5.55001 -0.605748
thorax 4.53384 -2.96931 4.27458
lowerneck -2.8511 6.89246 12.4283
upperneck 3.83114 8.70518 -0.880806
head 2.37885 4.52585 -2.14014
rclavicle -4.97583e-014 -1.53064e-014
rhumerus -42.202 -31.249 -64.5819
rradius 13.4823
rwrist 24.5649
rhand -20.1588 36.3272
rfingers 7.12502
rthumb 6.18652 6.43754
lclavicle -4.97583e-014 -1.53064e-014
lhumerus -0.509263 2.21589 85.1763
lradius 37.5975
lwrist 7.00264
lhand -13.3497 44.6088
lfingers 7.12502
lthumb 12.7561 74.1991
rfemur -35.7013 5.29605 8.35122
rtibia 22.8513
rfoot -13.1887 -10.2901
rtoes 2.93534
lfemur 2.63287 5.33124 -30.4423
ltibia 14.4981
lfoot -24.0939 -0.783148
ltoes -6.4519
930
root 1.27748 16.0999 -1.10691 458.942 83.076 453.242
lowerback -5.15615 -4.76873 -9.59631
upperback 0.774135 -5.68356 -0.503694
thorax 4.59541 -3.03596 4.2665
lowerneck -2.68507 6.84746 12.0408
upperneck 3.31843 8.69268 -0.783581
head 2.14622 4.49615 -2.05445
rclavicle -3.18055e-015 -2.03754e-014
rhumerus -42.0656 -30.8914 -64.96
rradius 13.6719
rwrist 24.1839
rhand -20.3766 36.3224
rfingers 7.12502
rthumb 5.97628 6.42672
lclavicle -3.18055e-015 -2.03754e-014
lhumerus -0.209636 2.35582 85.3175
lradius 37.3572
lwrist 6.88497
lhand -13.4262 44.6364
lfingers 7.12502
lthumb 12.6823 74.2313
rfemur -35.6616 6.03353 8.03538
rtibia 21.674
rfoot -12.6135 -11.5358
rtoes 3.55267
lfemur 3.47574 5.09576 -30.1264
ltibia 13.4294
lfoot -23.7581 -1.0781
ltoes -6.48202
931
root 1.39431 16.1016 -1.09045 461.194 83.0689 455.433
lowerback -5.17734 -4.72945 -9.52646
upperback 1.00059 -5.62133 -0.514272
thorax 4.82981 -3.01987 4.21114
lowerneck -3.74072 6.92796 12.0152
upperneck 3.61772 8.64364 -0.61626
head 2.42525 4.4858 -1.95636
rclavicle -1.41758e-014 -2.48481e-015
rhumerus -41.7601 -31.6706 -64.9464
rradius 13.6321
rwrist 24.2984
rhand -20.424 36.8775
rfingers 7.12502
rthumb 5.93044 6.98053
lclavicle -1.41758e-014 -2.48481e-015
lhumerus 0.720769 2.14103 85.5892
lradius 36.8907
lwrist 6.74814
lhand -13.4998 44.8491
lfingers 7.12502
lthumb 12.6113 74.4484
rfemur -35.5785 6.4584 7.72442
rtibia 20.6849
rfoot -12.0679 -12.5646
rtoes 3.99829
lfemur 4.35228 4.88615 -29.9506
ltibia 12.4028
lfoot -23.3733 -1.46497
ltoes -6.16235
932
root 1.5146 16.1043 -1.07538 464.211 82.9803 458.35
lowerback -5.1119 -4.87568 -9.679
upperback 0.818122 -5.82986 -0.387277
thorax 4.66037 -3.11718 4.41602
lowerneck -3.17792 6.92174 12.0073
upperneck 3.2374 8.72658 -0.770653
head 2.20818 4.5093 -2.02712
rclavicle -3.55949e-014 -7.35503e-015
rhumerus -41.8279 -31.111 -65.0768
rradius 13.6779
rwrist 23.7238
rhand -20.3929 36.9828
rfingers 7.12502
rthumb 5.9605 7.08669
lclavicle -3.55949e-014 -7.35503e-015
lhumerus 0.694329 2.50379 85.9562
lradius 36.4957
lwrist 6.44487
lhand -13.4849 44.8939
lfingers 7.12502
lthumb 12.6258 74.4923
rfemur -35.4682 6.69541 7.38815
rtibia 19.8939
rfoot -11.7414 -13.2953
rtoes 5.14682
lfemur 5.20758 4.58791 -29.8364
ltibia 11.4067
lfoot -22.9541 -1.88369
ltoes -5.67399
933
root 1.63635 16.1005 -1.05903 466.461 82.8577 460.445
lowerback -5.14521 -4.99585 -9.8
upperback 0.701805 -5.98641 -0.334491
thorax 4.59902 -3.1919 4.52085
lowerneck -3.12775 6.95848 12.4723
upperneck 3.40226 8.76578 -1.05101
head 2.30163 4.53564 -2.19896
rclavicle 1.59897e-014 -3.40916e-014
rhumerus -41.7568 -30.4834 -65.5531
rradius 13.8747
rwrist 23.1442
rhand -20.3339 36.6022
rfingers 7.12502
rthumb 6.0175 6.70762
lclavicle 1.59897e-014 -3.40916e-014
lhumerus 0.710845 2.79579 86.2093
lradius 36.1505
lwrist 6.20353
lhand -13.5652 44.7208
lfingers 7.12502
lthumb 12.5483 74.324
rfemur -35.43 6.88187 7.05033
rtibia 19.317
rfoot -11.312 -13.7607
rtoes 5.95076
lfemur 5.98476 4.31963 -29.7796
ltibia 10.4286
lfoot -22.5296 -2.27328
ltoes -5.47912
934
root 1.7567 16.0931 -1.0408 467.562 82.8558 461.462
lowerback -5.33903 -5.07141 -9.72494
upperback 0.732539 -6.06758 -0.343377
thorax 4.74466 -3.23619 4.44135
lowerneck -3.02171 7.03051 12.8194
upperneck 3.42493 8.86559 -1.19635
head 2.32682 4.58874 -2.30671
rclavicle 1.70085e-014 2.0276e-014
rhumerus -41.7173 -30.6321 -65.6883
rradius 13.894
rwrist 23.3912
rhand -20.3464 36.3646
rfingers 7.12502
rthumb 6.0054 6.46968
lclavicle 1.70085e-014 2.0276e-014
lhumerus 0.712333 2.96219 86.2948
lradius 35.9736
lwrist 6.09366
lhand -13.7235 44.6497
lfingers 7.12502
lthumb 12.3957 74.2622
rfemur -35.3587 6.79601 7.08776
rtibia 18.9539
rfoot -11.0018 -13.786
rtoes 7.16957
lfemur 6.77457 3.82464 -29.6691
ltibia 9.55668
lfoot -21.9965 -2.27433
ltoes -5.59226
935
root 1.87613 16.088 -1.01863 469.433 82.969 463.3
lowerback -5.49502 -5.18022 -9.58886
upperback 0.760457 -6.20792 -0.265913
thorax 4.87776 -3.30987 4.41385
lowerneck -2.80798 7.1087 12.6249
upperneck 3.3641 9.00344 -0.962854
head 2.25124 4.65778 -2.19551
rclavicle 3.61043e-014 1.89839e-014
rhumerus -41.875 -31.3665 -65.2099
rradius 13.6887
rwrist 24.4096
rhand -20.622 36.2774
rfingers 7.12502
rthumb 5.73932 6.37517
lclavicle 3.61043e-014 1.89839e-014
lhumerus 0.637029 3.32984 86.449
lradius 35.7403
lwrist 5.8463
lhand -13.6677 44.3464
lfingers 7.12502
lthumb 12.4495 73.9556
rfemur -35.1909 6.8578 7.24839
rtibia 18.7542
rfoot -10.824 -13.8131
rtoes 8.58925
lfemur 7.50337 3.2779 -29.3819
ltibia 8.95385
lfoot -21.5948 -2.11845
ltoes -5.93206
936
root 1.99552 16.082 -0.993602 471.146 82.9855 464.908
lowerback -5.58064 -5.32443 -9.69151
upperback 0.638855 -6.39786 -0.110114
thorax 4.85658 -3.4047 4.60608
lowerneck -2.41881 7.15779 12.3222
upperneck 3.38743 9.12868 -0.737275
head 2.16501 4.72154 -2.07491
rclavicle -3.57191e-014 7.35503e-015
rhumerus -41.8396 -31.0448 -65.2759
rradius 13.6439
rwrist 24.4585
rhand -20.854 36.008
rfingers 7.12502
rthumb 5.5153 6.09982
lclavicle -3.57191e-014 7.35503e-015
lhumerus 0.439068 3.96051 86.7358
lradius 35.3038
lwrist 5.46097
lhand -13.461 44.2303
lfingers 7.12502
lthumb 12.6488 73.8273
rfemur -35.0423 7.07729 7.20807
rtibia 18.6962
rfoot -10.6695 -13.6497
rtoes 9.57059
lfemur 8.01354 2.71249 -29.1969
ltibia 8.62692
lfoot -21.3662 -1.80652
ltoes -6.63573
937
root 2.11578 16.0755 -0.970913 472.206 83.0425 465.908
lowerback -5.7109 -5.18403 -9.49151
upperback 1.05721 -6.18738 -0.178156
thorax 5.31143 -3.32545 4.41881
lowerneck -4.11012 7.22842 12.3487
upperneck 3.72419 8.96876 -0.549377
head 2.56778 4.65907 -1.95941
rclavicle 9.53421e-014 1.76918e-014
rhumerus -40.9963 -31.8245 -65.8206
rradius 13.5792
rwrist 24.5387
rhand -20.8554 35.8362
rfingers 7.12502
rthumb 5.51396 5.92796
lclavicle 9.53421e-014 1.76918e-014
lhumerus 1.50066 3.80795 87.0486
lradius 34.593
lwrist 5.24171
lhand -13.3487 44.3173
lfingers 7.12502
lthumb 12.757 73.9075
rfemur -34.8526 7.016 7.38949
rtibia 18.847
rfoot -10.4689 -13.0405
rtoes 9.90615
lfemur 8.53315 2.24483 -29.0038
ltibia 8.39765
lfoot -21.1243 -1.65798
ltoes -6.51094
